<svg xmlns="http://www.w3.org/2000/svg" xmlns:xlink="http://www.w3.org/1999/xlink" width="1920" zoomAndPan="magnify" viewBox="0 0 1440 809.999993" height="1080" preserveAspectRatio="xMidYMid meet" version="1.2"><defs/><g id="9457673134"><g style="fill:#000000;fill-opacity:1;"><g transform="translate(55.224459, 496.020115)"><path style="stroke:none" d="M 94.140625 2.46875 C 82.148438 2.46875 71.144531 0.332031 61.125 -3.9375 C 51.101562 -8.207031 42.394531 -14.328125 35 -22.296875 C 27.601562 -30.265625 21.890625 -39.671875 17.859375 -50.515625 C 13.835938 -61.359375 11.828125 -73.273438 11.828125 -86.265625 C 11.828125 -98.585938 14.003906 -110.046875 18.359375 -120.640625 C 22.710938 -131.234375 28.75 -140.554688 36.46875 -148.609375 C 44.195312 -156.660156 53.15625 -162.90625 63.34375 -167.34375 C 73.53125 -171.78125 84.535156 -174 96.359375 -174 C 104.742188 -174 112.921875 -172.722656 120.890625 -170.171875 C 128.859375 -167.628906 136.085938 -164.097656 142.578125 -159.578125 C 149.066406 -155.054688 154.363281 -149.921875 158.46875 -144.171875 L 140.71875 -125.6875 C 133.65625 -132.914062 126.425781 -138.335938 119.03125 -141.953125 C 111.644531 -145.566406 104.085938 -147.375 96.359375 -147.375 C 88.304688 -147.375 80.789062 -145.851562 73.8125 -142.8125 C 66.832031 -139.78125 60.753906 -135.550781 55.578125 -130.125 C 50.398438 -124.707031 46.332031 -118.257812 43.375 -110.78125 C 40.414062 -103.300781 38.9375 -95.128906 38.9375 -86.265625 C 38.9375 -76.890625 40.375 -68.382812 43.25 -60.75 C 46.125 -53.113281 50.191406 -46.582031 55.453125 -41.15625 C 60.710938 -35.738281 66.992188 -31.59375 74.296875 -28.71875 C 81.609375 -25.84375 89.703125 -24.40625 98.578125 -24.40625 C 104.003906 -24.40625 109.34375 -25.140625 114.59375 -26.609375 C 119.851562 -28.085938 124.78125 -30.222656 129.375 -33.015625 C 133.976562 -35.816406 138.171875 -39.109375 141.953125 -42.890625 L 155.265625 -21.1875 C 151.484375 -16.757812 146.347656 -12.738281 139.859375 -9.125 C 133.367188 -5.507812 126.140625 -2.671875 118.171875 -0.609375 C 110.203125 1.441406 102.191406 2.46875 94.140625 2.46875 Z M 94.140625 2.46875 "/></g></g><g style="fill:#000000;fill-opacity:1;"><g transform="translate(222.567149, 496.020115)"><path style="stroke:none" d="M 74.921875 0 L 5.921875 -172.515625 L 36.234375 -172.515625 L 77.390625 -67.78125 C 79.359375 -62.6875 81.125 -58.082031 82.6875 -53.96875 C 84.25 -49.863281 85.601562 -46.125 86.75 -42.75 C 87.90625 -39.382812 88.972656 -36.222656 89.953125 -33.265625 C 90.941406 -30.304688 91.925781 -27.351562 92.90625 -24.40625 L 86.5 -24.15625 C 87.65625 -28.09375 88.890625 -32.195312 90.203125 -36.46875 C 91.515625 -40.75 93.03125 -45.429688 94.75 -50.515625 C 96.476562 -55.609375 98.578125 -61.363281 101.046875 -67.78125 L 139.25 -172.515625 L 170.296875 -172.515625 L 100.796875 0 Z M 74.921875 0 "/></g></g><g style="fill:#000000;fill-opacity:1;"><g transform="translate(393.85312, 496.020115)"><path style="stroke:none" d="M 17.25 0 L 17.25 -129.390625 L 42.890625 -129.390625 L 42.890625 -101.78125 L 38.203125 -98.828125 C 39.515625 -103.097656 41.609375 -107.203125 44.484375 -111.140625 C 47.359375 -115.085938 50.890625 -118.582031 55.078125 -121.625 C 59.265625 -124.664062 63.78125 -127.085938 68.625 -128.890625 C 73.476562 -130.703125 78.453125 -131.609375 83.546875 -131.609375 C 90.941406 -131.609375 97.429688 -130.375 103.015625 -127.90625 C 108.597656 -125.445312 113.195312 -121.75 116.8125 -116.8125 C 120.425781 -111.882812 123.054688 -105.722656 124.703125 -98.328125 L 120.765625 -99.328125 L 122.484375 -103.515625 C 124.296875 -107.285156 126.800781 -110.851562 130 -114.21875 C 133.207031 -117.59375 136.863281 -120.59375 140.96875 -123.21875 C 145.070312 -125.851562 149.425781 -127.910156 154.03125 -129.390625 C 158.632812 -130.867188 163.15625 -131.609375 167.59375 -131.609375 C 177.28125 -131.609375 185.285156 -129.632812 191.609375 -125.6875 C 197.941406 -121.75 202.707031 -115.753906 205.90625 -107.703125 C 209.113281 -99.648438 210.71875 -89.625 210.71875 -77.625 L 210.71875 0 L 185.09375 0 L 185.09375 -76.15625 C 185.09375 -87.164062 182.992188 -95.253906 178.796875 -100.421875 C 174.609375 -105.597656 168.078125 -108.1875 159.203125 -108.1875 C 154.609375 -108.1875 150.296875 -107.40625 146.265625 -105.84375 C 142.242188 -104.289062 138.753906 -102.113281 135.796875 -99.3125 C 132.835938 -96.519531 130.535156 -93.273438 128.890625 -89.578125 C 127.253906 -85.890625 126.4375 -81.828125 126.4375 -77.390625 L 126.4375 0 L 100.796875 0 L 100.796875 -76.640625 C 100.796875 -86.828125 98.617188 -94.628906 94.265625 -100.046875 C 89.910156 -105.472656 83.628906 -108.1875 75.421875 -108.1875 C 70.816406 -108.1875 66.539062 -107.40625 62.59375 -105.84375 C 58.65625 -104.289062 55.207031 -102.15625 52.25 -99.4375 C 49.289062 -96.726562 46.988281 -93.523438 45.34375 -89.828125 C 43.707031 -86.128906 42.890625 -82.144531 42.890625 -77.875 L 42.890625 0 Z M 17.25 0 "/></g></g><g style="fill:#000000;fill-opacity:1;"><g transform="translate(620.837797, 496.020115)"><path style="stroke:none" d="M 94.390625 0 L 94.390625 -84.28125 C 94.390625 -91.507812 91.800781 -97.382812 86.625 -101.90625 C 81.445312 -106.425781 74.914062 -108.6875 67.03125 -108.6875 C 59.800781 -108.6875 53.269531 -107.207031 47.4375 -104.25 C 41.601562 -101.289062 36.304688 -96.769531 31.546875 -90.6875 L 15.03125 -107.203125 C 22.75 -115.585938 31.085938 -121.832031 40.046875 -125.9375 C 49.003906 -130.039062 58.65625 -132.09375 69 -132.09375 C 78.863281 -132.09375 87.410156 -130.445312 94.640625 -127.15625 C 101.867188 -123.875 107.453125 -119.070312 111.390625 -112.75 C 115.335938 -106.425781 117.3125 -98.742188 117.3125 -89.703125 L 117.3125 0 Z M 55.703125 2.46875 C 47.316406 2.46875 39.835938 0.828125 33.265625 -2.453125 C 26.691406 -5.742188 21.472656 -10.304688 17.609375 -16.140625 C 13.753906 -21.972656 11.828125 -28.832031 11.828125 -36.71875 C 11.828125 -43.625 13.054688 -49.703125 15.515625 -54.953125 C 17.984375 -60.210938 21.640625 -64.566406 26.484375 -68.015625 C 31.335938 -71.472656 37.421875 -74.101562 44.734375 -75.90625 C 52.046875 -77.71875 60.46875 -78.625 70 -78.625 L 105.96875 -78.625 L 103.75 -58.40625 L 66.78125 -58.40625 C 61.851562 -58.40625 57.457031 -57.953125 53.59375 -57.046875 C 49.738281 -56.148438 46.453125 -54.753906 43.734375 -52.859375 C 41.023438 -50.972656 39.015625 -48.753906 37.703125 -46.203125 C 36.390625 -43.660156 35.734375 -40.664062 35.734375 -37.21875 C 35.734375 -33.601562 36.632812 -30.4375 38.4375 -27.71875 C 40.25 -25.007812 42.710938 -22.914062 45.828125 -21.4375 C 48.953125 -19.957031 52.570312 -19.21875 56.6875 -19.21875 C 62.601562 -19.21875 68.226562 -20.242188 73.5625 -22.296875 C 78.90625 -24.359375 83.671875 -27.195312 87.859375 -30.8125 C 92.046875 -34.425781 95.289062 -38.453125 97.59375 -42.890625 L 103.515625 -26.375 C 100.054688 -20.625 95.78125 -15.609375 90.6875 -11.328125 C 85.59375 -7.054688 80.085938 -3.6875 74.171875 -1.21875 C 68.265625 1.238281 62.109375 2.46875 55.703125 2.46875 Z M 55.703125 2.46875 "/></g></g><g style="fill:#000000;fill-opacity:1;"><g transform="translate(752.444565, 496.020115)"><path style="stroke:none" d="M 40.90625 -40.421875 L 39.671875 -68.015625 L 101.53125 -129.390625 L 135.796875 -129.390625 Z M 17.75 0 L 17.75 -182.375 L 43.125 -182.375 L 43.125 0 Z M 104.984375 0 L 56.1875 -56.9375 L 74.1875 -73.4375 L 137.515625 0 Z M 104.984375 0 "/></g></g><g style="fill:#000000;fill-opacity:1;"><g transform="translate(887.008786, 496.020115)"><path style="stroke:none" d="M 78.125 2.46875 C 64.8125 2.46875 53.019531 -0.363281 42.75 -6.03125 C 32.488281 -11.707031 24.441406 -19.472656 18.609375 -29.328125 C 12.773438 -39.179688 9.859375 -50.519531 9.859375 -63.34375 C 9.859375 -73.53125 11.5 -82.8125 14.78125 -91.1875 C 18.070312 -99.5625 22.632812 -106.828125 28.46875 -112.984375 C 34.300781 -119.148438 41.28125 -123.914062 49.40625 -127.28125 C 57.539062 -130.65625 66.375 -132.34375 75.90625 -132.34375 C 84.289062 -132.34375 92.097656 -130.738281 99.328125 -127.53125 C 106.554688 -124.332031 112.835938 -119.9375 118.171875 -114.34375 C 123.515625 -108.757812 127.625 -102.144531 130.5 -94.5 C 133.375 -86.863281 134.726562 -78.53125 134.5625 -69.5 L 134.3125 -58.65625 L 28.59375 -58.65625 L 22.921875 -78.859375 L 112.375 -78.859375 L 108.6875 -74.671875 L 108.6875 -80.59375 C 108.195312 -86.007812 106.390625 -90.851562 103.265625 -95.125 C 100.140625 -99.394531 96.191406 -102.765625 91.421875 -105.234375 C 86.660156 -107.703125 81.488281 -108.9375 75.90625 -108.9375 C 67.03125 -108.9375 59.550781 -107.25 53.46875 -103.875 C 47.394531 -100.507812 42.796875 -95.582031 39.671875 -89.09375 C 36.554688 -82.601562 35 -74.59375 35 -65.0625 C 35 -56.03125 36.882812 -48.1875 40.65625 -41.53125 C 44.4375 -34.875 49.773438 -29.738281 56.671875 -26.125 C 63.578125 -22.507812 71.550781 -20.703125 80.59375 -20.703125 C 87 -20.703125 92.953125 -21.769531 98.453125 -23.90625 C 103.960938 -26.039062 109.921875 -29.898438 116.328125 -35.484375 L 129.140625 -17.5 C 125.191406 -13.550781 120.382812 -10.097656 114.71875 -7.140625 C 109.050781 -4.191406 103.054688 -1.851562 96.734375 -0.125 C 90.410156 1.601562 84.207031 2.46875 78.125 2.46875 Z M 78.125 2.46875 "/></g></g><g style="fill:#000000;fill-opacity:1;"><g transform="translate(1031.431154, 496.020115)"><path style="stroke:none" d="M 17.75 0 L 17.75 -129.390625 L 43.375 -129.390625 L 43.375 -88.71875 L 40.90625 -98.578125 C 42.71875 -104.828125 45.800781 -110.492188 50.15625 -115.578125 C 54.507812 -120.671875 59.519531 -124.695312 65.1875 -127.65625 C 70.851562 -130.613281 76.726562 -132.09375 82.8125 -132.09375 C 85.601562 -132.09375 88.269531 -131.847656 90.8125 -131.359375 C 93.363281 -130.867188 95.378906 -130.296875 96.859375 -129.640625 L 90.203125 -102.03125 C 88.234375 -102.851562 86.054688 -103.550781 83.671875 -104.125 C 81.285156 -104.695312 78.941406 -104.984375 76.640625 -104.984375 C 72.210938 -104.984375 67.984375 -104.117188 63.953125 -102.390625 C 59.929688 -100.671875 56.398438 -98.289062 53.359375 -95.25 C 50.316406 -92.207031 47.890625 -88.675781 46.078125 -84.65625 C 44.273438 -80.632812 43.375 -76.238281 43.375 -71.46875 L 43.375 0 Z M 17.75 0 "/></g></g><g style="fill:#39cccc;fill-opacity:1;"><g transform="translate(1102.699594, 496.020115)"><path style="stroke:none" d="M 28.09375 2.71875 C 22.675781 2.71875 18.488281 1.113281 15.53125 -2.09375 C 12.570312 -5.300781 11.09375 -9.859375 11.09375 -15.765625 C 11.09375 -21.191406 12.648438 -25.628906 15.765625 -29.078125 C 18.890625 -32.523438 23 -34.25 28.09375 -34.25 C 33.519531 -34.25 37.707031 -32.644531 40.65625 -29.4375 C 43.613281 -26.238281 45.09375 -21.679688 45.09375 -15.765625 C 45.09375 -10.347656 43.53125 -5.910156 40.40625 -2.453125 C 37.289062 0.992188 33.1875 2.71875 28.09375 2.71875 Z M 28.09375 2.71875 "/></g></g><g style="fill:#000000;fill-opacity:1;"><g transform="translate(1158.93075, 496.020115)"><path style="stroke:none" d="M 94.390625 0 L 94.390625 -84.28125 C 94.390625 -91.507812 91.800781 -97.382812 86.625 -101.90625 C 81.445312 -106.425781 74.914062 -108.6875 67.03125 -108.6875 C 59.800781 -108.6875 53.269531 -107.207031 47.4375 -104.25 C 41.601562 -101.289062 36.304688 -96.769531 31.546875 -90.6875 L 15.03125 -107.203125 C 22.75 -115.585938 31.085938 -121.832031 40.046875 -125.9375 C 49.003906 -130.039062 58.65625 -132.09375 69 -132.09375 C 78.863281 -132.09375 87.410156 -130.445312 94.640625 -127.15625 C 101.867188 -123.875 107.453125 -119.070312 111.390625 -112.75 C 115.335938 -106.425781 117.3125 -98.742188 117.3125 -89.703125 L 117.3125 0 Z M 55.703125 2.46875 C 47.316406 2.46875 39.835938 0.828125 33.265625 -2.453125 C 26.691406 -5.742188 21.472656 -10.304688 17.609375 -16.140625 C 13.753906 -21.972656 11.828125 -28.832031 11.828125 -36.71875 C 11.828125 -43.625 13.054688 -49.703125 15.515625 -54.953125 C 17.984375 -60.210938 21.640625 -64.566406 26.484375 -68.015625 C 31.335938 -71.472656 37.421875 -74.101562 44.734375 -75.90625 C 52.046875 -77.71875 60.46875 -78.625 70 -78.625 L 105.96875 -78.625 L 103.75 -58.40625 L 66.78125 -58.40625 C 61.851562 -58.40625 57.457031 -57.953125 53.59375 -57.046875 C 49.738281 -56.148438 46.453125 -54.753906 43.734375 -52.859375 C 41.023438 -50.972656 39.015625 -48.753906 37.703125 -46.203125 C 36.390625 -43.660156 35.734375 -40.664062 35.734375 -37.21875 C 35.734375 -33.601562 36.632812 -30.4375 38.4375 -27.71875 C 40.25 -25.007812 42.710938 -22.914062 45.828125 -21.4375 C 48.953125 -19.957031 52.570312 -19.21875 56.6875 -19.21875 C 62.601562 -19.21875 68.226562 -20.242188 73.5625 -22.296875 C 78.90625 -24.359375 83.671875 -27.195312 87.859375 -30.8125 C 92.046875 -34.425781 95.289062 -38.453125 97.59375 -42.890625 L 103.515625 -26.375 C 100.054688 -20.625 95.78125 -15.609375 90.6875 -11.328125 C 85.59375 -7.054688 80.085938 -3.6875 74.171875 -1.21875 C 68.265625 1.238281 62.109375 2.46875 55.703125 2.46875 Z M 55.703125 2.46875 "/></g></g><g style="fill:#000000;fill-opacity:1;"><g transform="translate(1290.537518, 496.020115)"><path style="stroke:none" d="M 21.9375 0 L 21.9375 -129.390625 L 47.3125 -129.390625 L 47.3125 0 Z M 34.25 -157.96875 C 28.832031 -157.96875 24.644531 -159.363281 21.6875 -162.15625 C 18.726562 -164.957031 17.25 -168.90625 17.25 -174 C 17.25 -178.757812 18.769531 -182.617188 21.8125 -185.578125 C 24.851562 -188.535156 29 -190.015625 34.25 -190.015625 C 39.675781 -190.015625 43.867188 -188.617188 46.828125 -185.828125 C 49.785156 -183.035156 51.265625 -179.09375 51.265625 -174 C 51.265625 -169.226562 49.742188 -165.363281 46.703125 -162.40625 C 43.660156 -159.445312 39.507812 -157.96875 34.25 -157.96875 Z M 34.25 -157.96875 "/></g></g></g></svg>